<?xml version="1.0" standalone="no"?>
<!DOCTYPE svg PUBLIC "-//W3C//DTD SVG 20010904//EN"
 "http://www.w3.org/TR/2001/REC-SVG-20010904/DTD/svg10.dtd">
<svg version="1.0" xmlns="http://www.w3.org/2000/svg"
 width="1456.000000pt" height="816.000000pt" viewBox="0 0 1456.000000 816.000000"
 preserveAspectRatio="xMidYMid meet">

<g transform="translate(0.000000,816.000000) scale(0.100000,-0.100000)"
fill="#000000" stroke="none">
<path d="M6425 5556 c85 -31 738 -216 761 -216 31 0 28 -11 -97 -475 -32 -121
-64 -239 -70 -262 -8 -29 -8 -55 -1 -90 l11 -49 -108 -112 -107 -111 -290 127
c-159 71 -315 139 -348 152 -51 20 -60 29 -77 66 -21 50 -154 457 -171 521 -9
39 -28 68 -28 45 0 -49 61 -291 117 -467 59 -184 47 -171 240 -257 145 -66
356 -157 486 -212 l38 -15 -48 -70 c-26 -39 -51 -70 -55 -71 -4 0 -68 47 -142
104 -113 87 -144 106 -182 112 -51 7 -195 1 -464 -22 -252 -21 -321 -3 -443
114 -57 54 -67 61 -51 33 29 -52 122 -129 184 -153 80 -31 162 -34 480 -21
199 8 291 8 305 1 10 -6 60 -43 110 -82 71 -57 145 -113 173 -131 1 -1 -22
-50 -52 -108 -29 -58 -56 -111 -58 -118 -3 -8 -16 -4 -43 14 -78 51 -162 45
-232 -16 -58 -51 -79 -133 -53 -203 8 -21 8 -29 -2 -36 -32 -20 -339 -3 -495
27 -28 5 -28 5 3 -9 69 -32 213 -50 401 -49 l182 1 -40 -62 c-69 -104 -127
-236 -159 -360 -29 -113 -40 -189 -20 -141 4 11 20 65 35 120 29 106 85 238
137 319 l32 49 29 -37 c45 -55 98 -79 168 -74 145 10 223 160 153 292 -14 26
-24 49 -22 50 14 10 165 43 171 37 4 -4 41 -113 82 -241 42 -129 93 -286 114
-349 l38 -115 -35 -45 c-66 -87 -203 -421 -254 -621 -32 -126 -47 -301 -31
-360 8 -31 11 -22 17 70 14 190 42 292 164 585 89 214 102 242 149 303 32 43
35 51 30 97 -5 44 -127 421 -200 620 -14 38 -25 71 -23 73 2 1 29 10 60 19
l56 16 42 -39 c24 -22 139 -110 256 -198 l212 -158 77 -112 c42 -61 108 -156
146 -212 39 -55 85 -111 102 -123 19 -13 104 -39 211 -66 216 -53 279 -83 513
-244 227 -156 284 -184 373 -189 50 -3 69 -1 64 7 -4 6 -24 11 -44 11 -58 0
-163 57 -307 165 -285 215 -410 278 -650 325 -134 26 -128 22 -201 128 -241
349 -237 343 -373 445 -167 125 -285 208 -344 242 l-47 27 62 30 c72 34 152
82 186 112 22 20 23 20 80 1 69 -24 105 -23 253 5 119 23 463 99 560 124 l57
15 318 -120 c320 -121 502 -176 669 -204 109 -18 236 -19 290 -3 38 11 32 13
-91 19 -148 8 -328 46 -439 94 -16 7 -73 29 -125 48 -52 20 -163 63 -247 96
-83 33 -200 75 -258 92 -146 43 -148 43 -530 -50 -66 -16 -175 -44 -243 -61
-112 -30 -126 -31 -168 -20 -24 7 -43 16 -42 19 2 4 32 33 68 66 67 60 214
255 255 335 12 25 33 80 45 123 28 95 56 129 218 264 196 164 422 391 422 424
0 21 -24 5 -107 -73 -119 -112 -337 -295 -379 -320 -19 -11 -34 -15 -34 -9 0
6 -5 11 -11 11 -5 0 -8 -4 -4 -9 5 -10 -13 -26 -21 -19 -2 3 10 45 27 94 33
97 112 253 178 351 22 34 41 67 41 73 0 23 -23 7 -66 -50 -90 -115 -168 -260
-209 -388 -25 -78 -30 -86 -73 -113 -51 -32 -61 -32 -38 3 9 14 13 28 9 31 -3
4 -1 7 5 7 7 0 12 -4 12 -10 0 -26 45 4 54 36 8 25 -22 43 -36 22 -6 -9 -7 -5
-4 10 14 53 18 62 27 57 5 -3 6 1 3 10 -4 9 -2 26 4 38 6 12 20 54 33 92 12
39 43 118 70 176 52 113 57 129 36 129 -8 0 -42 -57 -76 -127 -34 -70 -79
-147 -100 -172 -21 -25 -51 -66 -68 -91 -17 -25 -50 -65 -73 -90 -23 -25 -57
-63 -76 -84 -19 -22 -34 -34 -34 -28 0 6 28 44 61 84 60 71 96 137 145 266 18
45 20 62 11 62 -7 0 -42 -57 -76 -126 -49 -98 -78 -142 -129 -195 -63 -68 -82
-78 -90 -48 -3 11 -2 11 7 -1 10 -13 12 -13 21 0 14 22 12 30 -7 23 -12 -5 -8
4 11 30 16 20 31 35 35 33 3 -2 13 3 21 12 13 14 12 15 -2 10 -13 -5 -12 0 5
27 12 19 28 32 35 30 7 -3 10 0 7 6 -4 5 -1 18 6 27 7 9 -3 1 -23 -18 -19 -19
-63 -74 -99 -121 -79 -107 -228 -290 -249 -306 -21 -17 -30 -16 -30 3 0 9 38
164 85 343 107 413 112 437 89 462 -35 38 -633 203 -809 223 l-50 6 40 -14z
m1220 -647 c-50 -117 -86 -188 -98 -196 -5 -3 -8 0 -5 8 2 7 -4 20 -13 29 -17
14 -15 20 44 96 34 44 71 100 82 123 35 79 26 26 -10 -60z m28 -124 c4 -8 2
-17 -2 -20 -5 -2 -11 4 -14 15 -6 23 8 27 16 5z m-153 -57 c0 -4 -4 -8 -9 -8
-6 0 -12 4 -15 8 -3 5 1 9 9 9 8 0 15 -4 15 -9z"/>
<path d="M7956 4954 c-5 -14 -4 -15 9 -4 17 14 19 20 6 20 -5 0 -12 -7 -15
-16z"/>
<path d="M7740 4940 c0 -7 -8 -19 -17 -26 -16 -12 -16 -15 -3 -23 12 -8 17 -4
23 20 5 17 6 34 3 37 -3 3 -6 -1 -6 -8z"/>
<path d="M7905 4899 c-4 -6 -5 -12 -2 -15 2 -3 7 2 10 11 7 17 1 20 -8 4z"/>
<path d="M7839 4858 c-1 -7 -1 -19 0 -25 1 -7 -2 -13 -7 -13 -6 0 -13 -7 -16
-16 -4 -10 7 -5 28 12 38 32 54 56 30 47 -7 -3 -14 -9 -14 -14 0 -5 -4 -9 -10
-9 -5 0 -7 7 -4 15 4 8 3 15 0 15 -3 0 -7 -6 -7 -12z"/>
</g>
</svg>
